<?xml version="1.0" encoding="UTF-8" standalone="no"?>
<!-- Created with Inkscape (http://www.inkscape.org/) -->

<svg
   width="104.80579mm"
   height="136.64337mm"
   viewBox="0 0 104.80579 136.64337"
   version="1.1"
   id="svg1"
   xml:space="preserve"
   sodipodi:docname="gcwc-plane.svg"
   inkscape:version="1.3 (0e150ed, 2023-07-21)"
   xmlns:inkscape="http://www.inkscape.org/namespaces/inkscape"
   xmlns:sodipodi="http://sodipodi.sourceforge.net/DTD/sodipodi-0.dtd"
   xmlns="http://www.w3.org/2000/svg"
   xmlns:svg="http://www.w3.org/2000/svg"><sodipodi:namedview
     id="namedview1"
     pagecolor="#ffffff"
     bordercolor="#000000"
     borderopacity="0.25"
     inkscape:showpageshadow="2"
     inkscape:pageopacity="0.0"
     inkscape:pagecheckerboard="0"
     inkscape:deskcolor="#d1d1d1"
     inkscape:document-units="mm"
     inkscape:zoom="0.77737103"
     inkscape:cx="291.36666"
     inkscape:cy="288.79388"
     inkscape:window-width="1504"
     inkscape:window-height="1212"
     inkscape:window-x="0"
     inkscape:window-y="25"
     inkscape:window-maximized="0"
     inkscape:current-layer="svg1" /><defs
     id="defs1" /><g
     id="layer1"
     transform="translate(-27.860496,-72.04195)"><path
       id="path1"
       style="fill:#000000"
       d="m 78.54008,72.04195 v 4.365625 4.365625 l 2.75694,0.06666 c 1.51621,0.03676 2.81396,0.124173 2.88406,0.194303 0.0701,0.07014 1.41954,0.121822 2.99827,0.114722 l 2.87011,-0.01292 V 77.632302 74.129157 L 85.3531,73.143687 C 82.77011,72.601848 80.1805,72.13245 79.59841,72.10034 Z m -0.64802,0.376204 -0.73432,0.391708 c -0.40381,0.215396 -1.32964,0.787508 -2.05724,1.27124 l -1.32292,0.879533 -0.0387,4.295345 c -0.0214,2.362423 0.0381,4.289959 0.13229,4.283459 0.0942,-0.0065 1.00448,-0.580436 2.02313,-1.275374 l 1.85208,-1.263489 0.0729,-4.291211 z m 0.38344,8.973613 -1.82521,1.212329 -1.82521,1.211812 h 5.85235 5.85236 l 1.18752,-0.837158 c 0.65302,-0.460291 1.13517,-0.920617 1.07177,-1.023193 -0.0634,-0.102575 -0.80225,-0.19738 -1.64228,-0.21084 -0.84003,-0.01346 -3.1349,-0.09839 -5.09943,-0.188619 z m -25.45839,2.688725 -0.006,5.820833 c -0.004,3.201453 0.0872,5.820833 0.20205,5.820833 0.1149,0 1.79779,0.17148 3.73982,0.38137 1.94203,0.2099 4.48356,0.46418 5.64772,0.56483 1.16417,0.10064 3.00964,0.2695 4.10104,0.37517 1.09141,0.10567 2.19274,0.20852 2.4474,0.22892 l 0.46302,0.03721 v -5.27048 -5.270995 l -0.7276,-0.150895 c -0.40019,-0.08308 -1.14433,-0.207659 -1.65365,-0.276469 -0.50932,-0.06881 -2.65245,-0.435599 -4.7625,-0.815454 -5.68319,-1.023098 -8.26749,-1.44274 -8.89248,-1.44384 z m -0.76326,0.529166 c -0.20525,0 -2.290701,1.618878 -2.547653,1.977657 -0.106907,0.149281 -0.196238,2.749343 -0.198438,5.777943 l -0.0041,5.50612 1.256771,-0.87591 c 0.691223,-0.48199 1.344164,-0.9955 1.451074,-1.14102 0.23233,-0.31623 0.27352,-11.24479 0.0424,-11.24479 z m 0.86661,11.79876 c -0.32519,0.0078 -0.78202,0.23609 -1.545643,0.75035 -0.858342,0.57803 -1.230937,0.96739 -0.994255,1.03869 0.208159,0.06274 3.414368,0.4002 7.125148,0.74983 3.71078,0.34963 7.10517,0.66159 7.54321,0.69349 0.53166,0.03873 1.2765,-0.25092 2.24017,-0.87178 l 1.44384,-0.93017 -0.78496,-0.03359 c -0.43166,-0.01857 -1.02309,-0.07258 -1.31414,-0.11938 -0.29104,-0.04681 -1.89838,-0.20094 -3.57187,-0.34261 -1.67349,-0.14166 -4.32118,-0.39591 -5.88388,-0.56534 -1.5627,-0.16946 -2.99145,-0.25442 -3.175,-0.18862 -0.18355,0.06577 -0.54116,0.01312 -0.79478,-0.1173 -0.0855,-0.04398 -0.17944,-0.06618 -0.28784,-0.06357 z m 23.5691,4.079862 c -0.10914,-0.002 -0.19844,3.21107 -0.19844,7.14013 0,4.57154 0.0953,7.14375 0.26407,7.14375 0.27846,0 8.19075,1.16078 11.11302,1.63039 0.94588,0.152 2.43416,0.36696 3.30729,0.47749 0.87312,0.11053 1.85539,0.2173 2.18281,0.2372 l 0.59531,0.0362 v -6.9758 -6.97529 l -1.12448,-0.16639 c -1.23171,-0.18244 -1.62422,-0.2451 -10.12031,-1.60921 -3.20146,-0.51401 -5.91013,-0.93644 -6.01927,-0.93844 z m -0.99219,0.017 -1.78593,0.85731 c -0.98227,0.4716 -1.93477,0.95011 -2.11667,1.0635 -0.2503,0.15602 -0.33073,1.81844 -0.33073,6.83421 v 6.6275 l 0.72761,-0.17776 c 0.40018,-0.0978 1.35268,-0.35734 2.11666,-0.57671 l 1.38906,-0.39894 v -7.1143 z m -40.745828,12.10779 v 7.70237 c 0,5.92883 0.07615,7.72671 0.330729,7.80831 0.181901,0.0583 1.524234,0.16908 2.982764,0.24598 3.111867,0.16412 9.209634,0.63969 12.03234,0.93844 1.091405,0.11551 2.646175,0.22607 3.455085,0.24547 l 1.47071,0.0351 0.0703,-7.27604 0.0698,-7.27605 -0.48266,-0.0217 c -0.26523,-0.012 -0.7798,-0.0654 -1.1436,-0.11834 -0.6189,-0.0901 -5.902609,-0.69775 -13.890626,-1.59783 -1.891768,-0.21316 -3.767006,-0.45451 -4.167188,-0.53641 z m -0.558622,0.57567 -1.010791,0.51574 c -0.55603,0.28366 -1.085446,0.70929 -1.176156,0.94567 -0.0907,0.23638 -0.164848,3.51578 -0.164848,7.28741 0,4.53757 0.09267,6.85747 0.273369,6.85747 0.150195,0 0.68864,-0.1737 1.196826,-0.38603 l 0.923974,-0.38602 -0.02119,-7.41712 z m 42.3478,2.22519 c -1.08875,-0.0566 -1.59839,0.0781 -2.49494,0.3545 l -1.58439,0.48834 3.83335,0.48473 c 2.10825,0.26661 5.8569,0.75186 8.33076,1.07849 5.53882,0.73131 5.98856,0.75014 6.63008,0.27802 l 0.51367,-0.37776 -0.39688,-0.14004 c -0.21828,-0.0771 -1.28984,-0.263 -2.38125,-0.4129 -1.09141,-0.14989 -4.00844,-0.58119 -6.48229,-0.95859 -3.21182,-0.48999 -4.87936,-0.73818 -5.96811,-0.79479 z m 33.35249,0.0894 v 7.68325 7.68274 l 1.65364,0.15348 c 0.90951,0.0844 5.28505,0.49779 9.72344,0.91829 4.43837,0.42049 8.33768,0.77775 8.6651,0.79375 l 0.59532,0.0289 v -7.67292 -7.67292 h -0.48215 c -0.26518,0 -3.86683,-0.34781 -8.00364,-0.77308 -4.13682,-0.42527 -8.5633,-0.85629 -9.83661,-0.95756 z m -0.83716,0.32711 c -0.16935,0 -1.33888,0.19762 -2.59933,0.43925 l -2.29185,0.43925 -0.0465,1.68931 c -0.0256,0.92915 -0.16322,4.09506 -0.30592,7.03523 -0.14271,2.94017 -0.26158,5.67574 -0.26458,6.07869 l -0.005,0.73226 0.7276,-0.16227 c 2.30419,-0.51457 4.72221,-1.27225 4.89066,-1.5322 0.10694,-0.16499 0.19643,-3.54417 0.19843,-7.50962 0.003,-5.30881 -0.0771,-7.2099 -0.30385,-7.2099 z M 34.818721,128.7527 c -0.457618,0.0315 -0.870319,0.11443 -1.29191,0.25322 -0.646622,0.21288 -1.141325,0.4212 -1.099675,0.4625 0.04165,0.0413 2.516232,0.15803 5.499406,0.25993 2.983174,0.1019 5.473916,0.23122 5.534546,0.28732 0.06063,0.0562 1.727511,0.0926 3.704167,0.0811 1.976656,-0.0115 3.474516,-0.0645 3.328995,-0.11783 -0.244616,-0.0896 -4.286654,-0.41706 -10.054166,-0.81493 -1.309686,-0.0903 -3.136188,-0.24982 -4.059184,-0.3545 -0.601784,-0.0683 -1.104561,-0.0884 -1.562179,-0.0568 z m 75.353539,2.80758 c -0.92239,0.0157 -1.62928,0.14238 -2.52801,0.38706 l -1.85209,0.50436 1.98438,0.06 c 1.0914,0.0332 4.42516,0.1331 7.40833,0.2222 v 5.2e-4 c 2.98318,0.0891 6.49559,0.2012 7.80521,0.2496 1.30963,0.0484 2.32113,0.0282 2.24793,-0.045 -0.0732,-0.0732 -2.39502,-0.3235 -5.15938,-0.55656 -2.76437,-0.23305 -5.5023,-0.47783 -6.08438,-0.54363 -1.7617,-0.19925 -2.8996,-0.29429 -3.82199,-0.27854 z m -41.55405,0.86093 0.002,9.89449 0.001,9.895 1.25522,0.0563 c 1.45013,0.065 9.32205,0.5302 16.60157,0.98133 2.7649,0.17135 5.53486,0.33122 6.15518,0.35502 l 1.12758,0.0434 -0.0692,-9.31106 -0.0698,-9.31106 -9.39271,-1.12551 C 79.06307,133.28 73.43736,132.69419 71.72749,132.59739 Z m -0.79375,0.0538 -1.78594,0.0785 -1.78594,0.078 -0.0692,9.50743 c -0.0543,7.43004 0.003,9.55355 0.26458,9.7193 0.18377,0.11665 1.01844,0.21401 1.85519,0.21601 l 1.52135,0.004 v -9.80147 z m 30.22864,5.26737 c -1.41883,-0.046 -2.63918,-0.0442 -2.71198,0.004 -0.0728,0.0484 -0.19178,4.6918 -0.26458,10.31875 l -0.13229,10.2309 -15.875,0.13229 -15.875,0.13229 -0.0698,8.40052 c -0.0537,6.4531 -0.14567,8.40114 -0.39688,8.40414 -0.0653,5.8e-4 -3.42026,0.003 -4.78007,0.004 0.0731,0.4357 0.14348,0.85944 0.22118,1.30276 l 7.36286,0.003 c 0.37119,-0.70398 1.19195,-2.26884 1.24643,-2.36781 l 0.0506,-6.29264 0.0698,-8.66045 16.86718,-0.0682 16.86719,-0.0677 v -10.69624 -10.69547 z m 3.10886,0.31316 v 10.98021 10.98021 H 84.29477 67.42758 v 8.53281 4.87309 c 0.23969,-0.24718 0.4981,-0.44706 0.7457,-0.56896 l 0.401,-0.1974 h 0.51574 0.51573 l 0.34519,0.1695 c 0.45553,0.2237 0.83741,0.6562 1.06764,1.20923 0.11772,0.28277 0.30348,1.02683 0.5209,2.08359 0.39934,1.94104 0.74774,3.37259 1.20458,4.94905 0.36057,1.24427 1.04071,3.27719 1.26917,3.79409 l 0.14211,0.32091 0.0429,-0.42323 c 0.459,-4.49242 1.33247,-9.08915 2.27686,-11.98429 0.75427,-2.3123 1.63825,-4.15864 2.19315,-4.58111 0.54737,-0.41674 1.32033,-0.60579 1.95905,-0.47904 0.83436,0.16555 1.57393,0.72344 1.91616,1.4459 l 0.19379,0.40928 v 0.60513 0.60513 l -0.37465,0.78652 c -1.24985,2.62414 -2.1177,6.04063 -2.89027,11.37708 -0.54712,3.77917 -0.7173,5.88125 -0.72915,9.01651 l -0.009,2.48098 -0.12505,0.33952 c -0.34602,0.93724 -0.9602,1.43576 -1.83142,1.48724 -0.3001,0.0177 -0.48868,-0.0102 -0.78909,-0.11523 h -5.2e-4 c -0.5946,-0.20831 -0.95713,-0.47265 -1.68362,-1.22835 -1.32957,-1.38304 -2.53389,-3.16447 -3.66127,-5.41518 -0.9308,-1.85824 -1.93939,-4.45832 -2.49442,-6.42958 -0.0633,-0.22466 -0.13023,-0.40824 -0.14831,-0.40824 -0.0181,0 -1.07668,2.08351 -2.35283,4.63021 -2.86514,5.71766 -3.47335,6.75426 -4.66897,7.9592 -0.86413,0.87086 -1.65137,1.15935 -2.32647,0.85266 -0.34876,-0.15845 -0.81864,-0.70389 -1.13585,-1.31981 -0.77526,-1.50535 -1.87847,-5.45705 -2.91145,-10.42779 -0.38893,-1.87158 -0.90788,-4.675 -1.35496,-7.21713 l -0.3085,0.002 -14.485941,0.0687 -0.04754,3.83387 c -0.02627,2.10881 -0.06902,4.57854 -0.09457,5.48804 -0.229048,8.15255 -0.386645,21.68017 -0.255281,21.89272 v 5.2e-4 c 0.204245,0.33046 1.732569,0.33382 7.577832,0.0165 2.526374,-0.13713 6.617581,-0.31934 9.091431,-0.40514 2.47386,-0.0858 5.56949,-0.20725 6.87917,-0.26975 1.30969,-0.0625 4.10766,-0.18127 6.21771,-0.26407 2.11005,-0.0828 6.15817,-0.26149 8.99583,-0.39687 2.83765,-0.13537 7.30251,-0.31539 9.92187,-0.40049 2.61938,-0.0851 5.65547,-0.20851 6.74688,-0.27441 1.0914,-0.0659 6.2111,-0.29726 11.377079,-0.51418 5.16599,-0.21693 10.76193,-0.45388 12.43542,-0.52658 1.67349,-0.0727 4.59052,-0.1947 6.48229,-0.2713 1.89177,-0.0766 4.66456,-0.20894 6.16138,-0.29404 l 2.72128,-0.15503 -0.14624,-4.00854 c -0.15371,-4.21185 -0.57421,-20.40376 -0.79789,-30.73197 -0.45804,-21.15015 -0.73199,-29.66299 -0.96428,-29.94288 -0.35363,-0.4261 -4.5795,-0.76639 -15.97008,-1.28571 -1.74625,-0.0796 -5.13954,-0.25742 -7.54063,-0.39532 -2.40109,-0.13791 -4.75258,-0.25225 -5.22552,-0.25425 z m -73.267364,10.25674 -0.01705,10.4159 -0.01705,10.41591 0.866097,0.72036 c 0.476223,0.39626 0.954878,0.72361 1.064018,0.72761 0.109137,0.004 0.198437,-4.93387 0.198437,-10.97297 0,-6.09802 -0.102938,-10.98021 -0.23151,-10.98021 -0.12733,0 -0.59834,-0.0736 -1.046965,-0.1633 z m 2.644283,0.27492 -0.01447,11.14506 c -0.01163,8.76992 0.05661,11.16902 0.320394,11.25822 0.184368,0.0623 4.502056,0.27992 9.59528,0.4837 4.715607,0.18867 9.591781,0.33743 11.945006,0.37878 -0.0327,-0.25418 -0.0563,-0.46306 -0.0563,-0.54828 0,-0.42943 0.20155,-1.02366 0.47801,-1.40974 0.44264,-0.61814 1.02318,-0.89829 1.96061,-0.94671 1.11383,-0.0575 1.81866,0.29728 2.20348,1.10639 l -0.0574,-8.78189 -0.0692,-10.64948 -2.24896,-0.1881 c -1.23692,-0.10344 -6.356617,-0.4904 -11.377081,-0.8599 -5.020463,-0.3695 -9.927127,-0.74292 -10.903728,-0.82992 z m 79.515561,22.2958 c 0.31494,0.007 0.63322,0.0335 0.95394,0.0811 2.16037,0.32079 3.83492,1.34259 4.95267,3.02255 1.25204,1.8818 1.7903,4.01225 1.70481,6.7474 -0.0789,2.52553 -0.59016,4.61356 -1.64538,6.71741 -1.41723,2.8256 -3.10515,4.51022 -5.24929,5.23948 -0.8491,0.2888 -2.15326,0.42909 -3.05563,0.32866 -0.97538,-0.10855 -2.06928,-0.43627 -2.84944,-0.85318 -2.18047,-1.16522 -3.63517,-3.60569 -4.03748,-6.77271 -0.12669,-0.99733 -0.0942,-3.23699 0.061,-4.20543 0.46866,-2.92532 1.64262,-5.57431 3.35845,-7.57783 1.56143,-1.82324 3.60173,-2.77364 5.80637,-2.72748 z m -18.603,0.0227 c 1.00124,-0.002 1.5511,0.0853 2.48098,0.3912 1.10055,0.36203 1.8119,0.80418 2.66651,1.65778 1.05078,1.04955 1.75111,2.31281 2.19935,3.9672 0.43908,1.62057 0.52096,3.81919 0.21859,5.87457 -0.29004,1.97154 -1.05924,4.0927 -2.11047,5.82032 -1.66933,2.74342 -3.6794,4.15641 -6.26163,4.40128 -0.35522,0.0337 -0.71364,0.0562 -0.79685,0.0506 -0.0832,-0.006 -0.26065,-0.0189 -0.39378,-0.03 -0.95372,-0.0796 -2.11237,-0.39319 -2.88354,-0.78031 -1.00469,-0.50436 -1.95532,-1.34199 -2.58021,-2.27377 -1.01224,-1.50938 -1.53768,-3.15575 -1.711,-5.36143 -0.21647,-2.75479 0.38157,-5.71342 1.66294,-8.22998 1.39721,-2.74403 3.17096,-4.47916 5.26997,-5.15525 0.83248,-0.26815 1.25132,-0.33058 2.23914,-0.33228 z m -38.50514,4.4679 c -1.584125,10e-4 -1.566329,0.002 -3.378091,0.003 l -12.832292,0.008 0.786515,0.64027 0.785999,0.63975 14.225489,0.005 h 0.62994 c -0.0855,-0.49035 -0.1405,-0.84192 -0.21756,-1.29656 z m 39.00692,0.44442 -0.493,0.0269 c -0.38539,0.0211 -0.57216,0.0658 -0.85576,0.20412 -0.95244,0.46463 -2.18351,2.08068 -2.81481,3.69538 -0.85268,2.18088 -0.86519,4.58475 -0.0341,6.50245 0.62787,1.44884 1.49928,1.98541 2.64532,1.62936 0.78216,-0.24337 1.76959,-1.08157 2.38435,-2.02469 0.40379,-0.61948 0.67831,-1.20747 0.92966,-1.99212 0.7869,-2.45657 0.71508,-4.6438 -0.2155,-6.55723 -0.333,-0.68472 -0.70835,-1.10128 -1.19165,-1.3224 z m 18.15393,0.016 c -0.99847,-0.003 -1.85433,0.60896 -2.7802,1.98954 -0.54989,0.81995 -0.91394,1.55225 -1.20251,2.42001 -0.30186,0.90774 -0.41869,1.58509 -0.46095,2.66908 -0.0408,1.04678 0.0581,1.76814 0.37104,2.7032 0.65608,1.96065 1.59012,2.69191 2.88199,2.25671 0.42723,-0.14393 0.72432,-0.3206 1.25574,-0.74724 1.07148,-0.86022 1.94796,-2.49338 2.35954,-4.39663 0.15678,-0.72495 0.26981,-2.07328 0.22066,-2.62982 -0.11347,-1.28507 -0.48726,-2.47874 -1.03508,-3.30574 -0.44005,-0.66429 -0.93111,-0.95689 -1.61023,-0.95911 z m -74.109689,0.0568 c -0.04653,0 -0.08195,0.26789 -0.07855,0.59531 0.0034,0.32742 -0.08881,6.93265 -0.205156,14.67818 l -0.211873,14.08286 0.749308,1.05885 c 0.412104,0.58243 0.838605,1.06153 0.947746,1.06453 0.10914,0.003 0.20489,-2.5244 0.21239,-5.61671 0.0132,-5.4565 0.146903,-13.36896 0.3545,-20.97856 l 0.101286,-3.71451 -0.892452,-0.58497 c -0.490855,-0.32176 -0.930671,-0.58498 -0.977201,-0.58498 z m 29.314489,1.20044 -7.06158,0.0336 c 0.43984,2.47481 0.92955,4.977 1.36529,6.90708 0.53093,2.3517 0.59879,2.63283 0.63562,2.63084 0.0193,-0.001 1.44514,-2.69021 3.16828,-5.97586 0.96616,-1.84227 1.26281,-2.40051 1.89239,-3.59565 z" /></g></svg>
