<?xml version="1.0" encoding="UTF-8" standalone="no"?><!DOCTYPE svg PUBLIC "-//W3C//DTD SVG 1.1//EN" "http://www.w3.org/Graphics/SVG/1.1/DTD/svg11.dtd"><svg width="100%" height="100%" viewBox="0 0 4500 4500" version="1.1" xmlns="http://www.w3.org/2000/svg" xmlns:xlink="http://www.w3.org/1999/xlink" xml:space="preserve" xmlns:serif="http://www.serif.com/" style="fill-rule:evenodd;clip-rule:evenodd;stroke-linejoin:round;stroke-miterlimit:2;"><g><path d="M1262.58,2081.62l460.721,60.85l8.693,460.721l-469.414,-43.464l-0,-478.107Z" style="fill:#cc180e;"/><path d="M1175.69,1498.36l385.594,89.998l1.058,359.159l-387.989,-76.703l1.337,-372.454Z" style="fill:#cc180e;"/><path d="M2067.15,1757.67l366.225,60.85l6.91,460.722l-373.135,-30.271l-0,-491.301Z" style="fill:#cc180e;"/><path d="M2242.8,3471.15l122.589,-270.924l207.687,420.027l-275.915,-0l-54.361,-149.103Z" style="fill:#f3342a;"/><path d="M1436.44,2724.89l356.407,-0l178.602,330.328l305.142,-614.349l334.971,15.207l172.27,390.514l305.066,-870.676l429.127,-2.672l-512.924,1647.01l-431.778,0.5l-207.935,-420.527l-190.055,420.027l-417.257,-0l-321.636,-895.364Z" style="fill:#cc180e;"/><path d="M1436.44,2724.89l-260.786,60.85l304.25,834.514l278.172,-0l-321.636,-895.364Z" style="fill:#f3342a;"/><path d="M1841.05,2821.3l130.393,233.91l305.142,-614.349l-265.977,56.722l-169.558,323.717Z" style="fill:#f23329;"/><path d="M2649.56,2542.21l134.271,304.375l305.066,-870.676l-259.189,78.305l-180.148,487.996Z" style="fill:#f23329;"/><path d="M1758.07,3620.25l-278.172,-0l-304.25,-834.514l260.786,-60.85l321.636,895.364Z" style="fill:none;"/><path d="M1792.84,2724.89l130.393,330.328l305.142,-614.349l-287.757,23.235l-147.778,260.786Z" style="fill:none;"/><path d="M1262.58,2081.62l-208.628,86.928l-0,434.643l208.628,-43.464l-0,-478.107Z" style="fill:#f23329;"/><path d="M1175.69,1498.36l-193.543,85.368l-0.167,363.789l192.373,-76.703l1.337,-372.454Z" style="fill:#f23329;"/><path d="M2067.15,1757.67l-232.664,86.929l-0,478.351l232.664,-73.979l-0,-491.301Z" style="fill:#f23329;"/><path d="M1731.99,2603.19l-226.014,43.464l-452.028,-43.464l208.628,-43.464l469.414,43.464Z" style="fill:#b0120d;"/><path d="M1562.34,1947.52l-193.995,68.707l-386.367,-68.707l192.373,-76.703l387.989,76.703Z" style="fill:#b0120d;"/><path d="M1821.94,1233.75l363.763,80.57l0.997,321.536l-366.021,-68.667l1.261,-333.439Z" style="fill:#cc180e;"/><path d="M1821.94,1233.75l-182.585,76.426l-0.157,325.68l181.481,-68.667l1.261,-333.439Z" style="fill:#f23329;"/><path d="M2186.7,1635.85l-183.01,61.51l-364.492,-61.51l181.481,-68.667l366.021,68.667Z" style="fill:#b0120d;"/><path d="M1229.1,1031.28l337.034,58.217l0.924,232.327l-339.127,-49.616l1.169,-240.928Z" style="fill:#cc180e;"/><path d="M1229.1,1031.28l-169.169,55.222l-0.146,235.322l168.146,-49.616l1.169,-240.928Z" style="fill:#f23329;"/><path d="M1567.05,1321.83l-169.563,44.444l-337.71,-44.444l168.146,-49.616l339.127,49.616Z" style="fill:#b0120d;"/><path d="M1813.08,879.25l211.914,41.607l0.581,166.043l-213.23,-35.46l0.735,-172.19Z" style="fill:#cc180e;"/><path d="M1813.08,879.25l-106.367,39.467l-0.092,168.183l105.724,-35.46l0.735,-172.19Z" style="fill:#f23329;"/><path d="M2025.58,1086.9l-106.615,31.764l-212.339,-31.764l105.724,-35.46l213.23,35.46Z" style="fill:#b0120d;"/><path d="M2440.29,2279.24l-186.568,73.292l-419.231,-29.584l232.664,-73.979l373.135,30.271Z" style="fill:#b0120d;"/></g></svg>